<svg width="40" height="57" viewBox="0 0 40 57" fill="none" xmlns="http://www.w3.org/2000/svg">
<g clip-path="url(#clip0_3_24)">
<path d="M20.0056 27.591C21.2102 27.591 22.2396 27.1151 23.0938 26.1633C23.9479 25.2115 24.375 24.0674 24.375 22.7308C24.375 21.3943 23.9461 20.2522 23.0882 19.3045C22.2304 18.3568 21.1991 17.883 19.9944 17.883C18.7898 17.883 17.7604 18.3589 16.9062 19.3107C16.0521 20.2624 15.625 21.4066 15.625 22.7432C15.625 24.0797 16.0539 25.2218 16.9118 26.1694C17.7696 27.1171 18.8009 27.591 20.0056 27.591ZM20 50.5433C25.5417 44.9497 29.6354 39.8761 32.2812 35.3226C34.9271 30.7691 36.25 26.7588 36.25 23.2917C36.25 17.8465 34.6814 13.3879 31.5443 9.91591C28.4071 6.44393 24.559 4.70794 20 4.70794C15.441 4.70794 11.5929 6.44393 8.45575 9.91591C5.31858 13.3879 3.75 17.8465 3.75 23.2917C3.75 26.7588 5.10417 30.7691 7.8125 35.3226C10.5208 39.8761 14.5833 44.9497 20 50.5433ZM20 56.0214C13.2917 49.6881 8.28125 43.8055 4.96875 38.3737C1.65625 32.9419 0 27.9146 0 23.2917C0 16.3575 2.01042 10.8332 6.03125 6.71887C10.0521 2.60455 14.7083 0.547394 20 0.547394C25.2917 0.547394 29.9479 2.60455 33.9688 6.71887C37.9896 10.8332 40 16.3575 40 23.2917C40 27.9146 38.3438 32.9419 35.0312 38.3737C31.7188 43.8055 26.7083 49.6881 20 56.0214Z" fill="#EA4633"/>
</g>
<defs>
<clipPath id="clip0_3_24">
<rect width="40" height="57" fill="white"/>
</clipPath>
</defs>
</svg>
