<svg width="42" height="42" viewBox="0 0 42 42" fill="none" xmlns="http://www.w3.org/2000/svg">
<path d="M34.825 36.7062L23.3188 25.2C22.4438 25.9583 21.4235 26.5489 20.258 26.9719C19.0926 27.3948 17.8524 27.6062 16.5375 27.6062C13.3828 27.6062 10.7128 26.5125 8.52771 24.325C6.34257 22.1375 5.25 19.4979 5.25 16.4062C5.25 13.3146 6.34375 10.675 8.53125 8.48749C10.7188 6.29999 13.3656 5.20624 16.4719 5.20624C19.5781 5.20624 22.2177 6.29999 24.3906 8.48749C26.5635 10.675 27.65 13.3168 27.65 16.4128C27.65 17.6626 27.4458 18.8708 27.0375 20.0375C26.6292 21.2042 26.0167 22.2979 25.2 23.3187L36.75 34.7812L34.825 36.7062ZM16.4937 24.9812C18.8635 24.9812 20.8779 24.1427 22.5367 22.4656C24.1956 20.7885 25.025 18.7687 25.025 16.4062C25.025 14.0437 24.1956 12.0239 22.5367 10.3469C20.8779 8.66978 18.8635 7.83124 16.4937 7.83124C14.0997 7.83124 12.0647 8.66978 10.3888 10.3469C8.71293 12.0239 7.875 14.0437 7.875 16.4062C7.875 18.7687 8.71293 20.7885 10.3888 22.4656C12.0647 24.1427 14.0997 24.9812 16.4937 24.9812Z" fill="#292625"/>
</svg>
